<svg contentScriptType="text/ecmascript" width="777px" xmlns:xlink="http://www.w3.org/1999/xlink" zoomAndPan="magnify" style="width:777px;height:494px;" contentStyleType="text/css" viewBox="0 0 777 494" height="494px" preserveAspectRatio="xMidYMid meet" xmlns="http://www.w3.org/2000/svg" version="1.1"><defs><filter x="-1" y="-1" width="300%" xmlns:xlink="http://www.w3.org/1999/xlink" xlink:type="simple" xlink:actuate="onLoad" height="300%" id="f1" xlink:show="other"><feGaussianBlur stdDeviation="2.0" result="blurOut"/><feColorMatrix values="0 0 0 0 0 0 0 0 0 0 0 0 0 0 0 0 0 0 .4 0" type="matrix" result="blurOut2" in="blurOut"/><feOffset dx="4.0" dy="4.0" result="blurOut3" in="blurOut2"/><feBlend mode="normal" in2="blurOut3" in="SourceGraphic"/></filter></defs><g><rect x="82" y="24.5" fill="#FFFFFF" width="688" style="stroke: #000000; stroke-width: 2.0;" filter="url(#f1)" height="371"/><text x="397.5" font-size="14" y="39.4951" fill="#000000" font-family="sans-serif" font-weight="bold" lengthAdjust="spacingAndGlyphs" textLength="57">system</text><a xmlns:xlink="http://www.w3.org/1999/xlink" xlink:href="http://127.0.0.1:63320/node?ref=r%3A46c7fdec-dff5-4c1d-9d05-dbb54255fd69%28liftFSM.requirements%29%2F1085275269402762817" xlink:type="simple" xlink:title="http://127.0.0.1:63320/node?ref=r%3A46c7fdec-dff5-4c1d-9d05-dbb54255fd69%28liftFSM.requirements%29%2F1085275269402762817" target="_top" xlink:actuate="onRequest" xlink:show="replace"><ellipse fill="#FEFECE" style="stroke: #A80036; stroke-width: 2.0;" filter="url(#f1)" rx="8" cx="331" ry="8" cy="199"/><path fill="#FEFECE" d="M331,207 L331,234 M318,215 L344,215 M331,234 L318,249 M331,234 L344,249 " style="stroke: #A80036; stroke-width: 2.0;" filter="url(#f1)"/><text x="296" font-size="14" y="268.9951" fill="#000000" font-family="sans-serif" lengthAdjust="spacingAndGlyphs" textLength="70">liftControl</text></a><a xmlns:xlink="http://www.w3.org/1999/xlink" xlink:href="http://127.0.0.1:63320/node?ref=r%3A46c7fdec-dff5-4c1d-9d05-dbb54255fd69%28liftFSM.requirements%29%2F1085275269403237824" xlink:type="simple" xlink:title="http://127.0.0.1:63320/node?ref=r%3A46c7fdec-dff5-4c1d-9d05-dbb54255fd69%28liftFSM.requirements%29%2F1085275269403237824" target="_top" xlink:actuate="onRequest" xlink:show="replace"><ellipse fill="#FEFECE" style="stroke: #A80036; stroke-width: 2.0;" filter="url(#f1)" rx="8" cx="692" ry="8" cy="306"/><path fill="#FEFECE" d="M692,314 L692,341 M679,322 L705,322 M692,341 L679,356 M692,341 L705,356 " style="stroke: #A80036; stroke-width: 2.0;" filter="url(#f1)"/><text x="630" font-size="14" y="375.9951" fill="#000000" font-family="sans-serif" lengthAdjust="spacingAndGlyphs" textLength="124">emergencyAlarm</text></a><a xmlns:xlink="http://www.w3.org/1999/xlink" xlink:href="http://127.0.0.1:63320/node?ref=r%3A46c7fdec-dff5-4c1d-9d05-dbb54255fd69%28liftFSM.requirements%29%2F1085275269403115462" xlink:type="simple" xlink:title="http://127.0.0.1:63320/node?ref=r%3A46c7fdec-dff5-4c1d-9d05-dbb54255fd69%28liftFSM.requirements%29%2F1085275269403115462" target="_top" xlink:actuate="onRequest" xlink:show="replace"><ellipse fill="#FEFECE" style="stroke: #A80036; stroke-width: 2.0;" filter="url(#f1)" rx="8" cx="692" ry="8" cy="70"/><path fill="#FEFECE" d="M692,78 L692,105 M679,86 L705,86 M692,105 L679,120 M692,105 L705,120 " style="stroke: #A80036; stroke-width: 2.0;" filter="url(#f1)"/><text x="661" font-size="14" y="139.9951" fill="#000000" font-family="sans-serif" lengthAdjust="spacingAndGlyphs" textLength="62">motorUp</text></a><a xmlns:xlink="http://www.w3.org/1999/xlink" xlink:href="http://127.0.0.1:63320/node?ref=r%3A46c7fdec-dff5-4c1d-9d05-dbb54255fd69%28liftFSM.requirements%29%2F1085275269403115496" xlink:type="simple" xlink:title="http://127.0.0.1:63320/node?ref=r%3A46c7fdec-dff5-4c1d-9d05-dbb54255fd69%28liftFSM.requirements%29%2F1085275269403115496" target="_top" xlink:actuate="onRequest" xlink:show="replace"><ellipse fill="#FEFECE" style="stroke: #A80036; stroke-width: 2.0;" filter="url(#f1)" rx="8" cx="692" ry="8" cy="188"/><path fill="#FEFECE" d="M692,196 L692,223 M679,204 L705,204 M692,223 L679,238 M692,223 L705,238 " style="stroke: #A80036; stroke-width: 2.0;" filter="url(#f1)"/><text x="650.5" font-size="14" y="257.9951" fill="#000000" font-family="sans-serif" lengthAdjust="spacingAndGlyphs" textLength="83">motorDown</text></a><a xmlns:xlink="http://www.w3.org/1999/xlink" xlink:href="http://127.0.0.1:63320/node?ref=r%3A46c7fdec-dff5-4c1d-9d05-dbb54255fd69%28liftFSM.requirements%29%2F1085275269403237984" xlink:type="simple" xlink:title="http://127.0.0.1:63320/node?ref=r%3A46c7fdec-dff5-4c1d-9d05-dbb54255fd69%28liftFSM.requirements%29%2F1085275269403237984" target="_top" xlink:actuate="onRequest" xlink:show="replace"><ellipse fill="#FEFECE" style="stroke: #A80036; stroke-width: 1.5;" filter="url(#f1)" rx="69.06" cx="167.06" ry="16.212" cy="230.712"/><text x="115.06" font-size="14" y="235.3604" fill="#000000" font-family="sans-serif" lengthAdjust="spacingAndGlyphs" textLength="104">emergencySet</text></a><a xmlns:xlink="http://www.w3.org/1999/xlink" xlink:href="http://127.0.0.1:63320/node?ref=r%3A46c7fdec-dff5-4c1d-9d05-dbb54255fd69%28liftFSM.requirements%29%2F1085275269403237989" xlink:type="simple" xlink:title="http://127.0.0.1:63320/node?ref=r%3A46c7fdec-dff5-4c1d-9d05-dbb54255fd69%28liftFSM.requirements%29%2F1085275269403237989" target="_top" xlink:actuate="onRequest" xlink:show="replace"><ellipse fill="#FEFECE" style="stroke: #A80036; stroke-width: 1.5;" filter="url(#f1)" rx="71.8489" cx="497.8489" ry="16.7698" cy="362.2698"/><text x="442.3489" font-size="14" y="366.9182" fill="#000000" font-family="sans-serif" lengthAdjust="spacingAndGlyphs" textLength="111">callSafetyTeam</text></a><a xmlns:xlink="http://www.w3.org/1999/xlink" xlink:href="http://127.0.0.1:63320/node?ref=r%3A46c7fdec-dff5-4c1d-9d05-dbb54255fd69%28liftFSM.requirements%29%2F1085275269403237994" xlink:type="simple" xlink:title="http://127.0.0.1:63320/node?ref=r%3A46c7fdec-dff5-4c1d-9d05-dbb54255fd69%28liftFSM.requirements%29%2F1085275269403237994" target="_top" xlink:actuate="onRequest" xlink:show="replace"><ellipse fill="#FEFECE" style="stroke: #A80036; stroke-width: 1.5;" filter="url(#f1)" rx="62.2362" cx="498.2362" ry="14.8472" cy="230.3472"/><text x="455.2362" font-size="14" y="234.9957" fill="#000000" font-family="sans-serif" lengthAdjust="spacingAndGlyphs" textLength="86">soundAlarm</text></a><a xmlns:xlink="http://www.w3.org/1999/xlink" xlink:href="http://127.0.0.1:63320/node?ref=r%3A46c7fdec-dff5-4c1d-9d05-dbb54255fd69%28liftFSM.requirements%29%2F1085275269403238486" xlink:type="simple" xlink:title="http://127.0.0.1:63320/node?ref=r%3A46c7fdec-dff5-4c1d-9d05-dbb54255fd69%28liftFSM.requirements%29%2F1085275269403238486" target="_top" xlink:actuate="onRequest" xlink:show="replace"><ellipse fill="#FEFECE" style="stroke: #A80036; stroke-width: 1.5;" filter="url(#f1)" rx="58.1543" cx="498.1543" ry="14.5236" cy="165.5236"/><text x="459.1543" font-size="14" y="170.1721" fill="#000000" font-family="sans-serif" lengthAdjust="spacingAndGlyphs" textLength="78">stopMotors</text></a><a xmlns:xlink="http://www.w3.org/1999/xlink" xlink:href="http://127.0.0.1:63320/node?ref=r%3A46c7fdec-dff5-4c1d-9d05-dbb54255fd69%28liftFSM.requirements%29%2F1085275269403238769" xlink:type="simple" xlink:title="http://127.0.0.1:63320/node?ref=r%3A46c7fdec-dff5-4c1d-9d05-dbb54255fd69%28liftFSM.requirements%29%2F1085275269403238769" target="_top" xlink:actuate="onRequest" xlink:show="replace"><ellipse fill="#FEFECE" style="stroke: #A80036; stroke-width: 1.5;" filter="url(#f1)" rx="58.8614" cx="497.8614" ry="14.5236" cy="295.5236"/><text x="458.3614" font-size="14" y="300.1721" fill="#000000" font-family="sans-serif" lengthAdjust="spacingAndGlyphs" textLength="79">resetAlarm</text></a><ellipse fill="#FEFECE" style="stroke: #A80036; stroke-width: 2.0;" filter="url(#f1)" rx="8" cx="22" ry="8" cy="199"/><path fill="#FEFECE" d="M22,207 L22,234 M9,215 L35,215 M22,234 L9,249 M22,234 L35,249 " style="stroke: #A80036; stroke-width: 2.0;" filter="url(#f1)"/><text x="6" font-size="14" y="268.9951" fill="#000000" font-family="sans-serif" lengthAdjust="spacingAndGlyphs" textLength="32">User</text><ellipse fill="#FEFECE" style="stroke: #A80036; stroke-width: 2.0;" filter="url(#f1)" rx="8" cx="692" ry="8" cy="424"/><path fill="#FEFECE" d="M692,432 L692,459 M679,440 L705,440 M692,459 L679,474 M692,459 L705,474 " style="stroke: #A80036; stroke-width: 2.0;" filter="url(#f1)"/><text x="650" font-size="14" y="493.9951" fill="#000000" font-family="sans-serif" lengthAdjust="spacingAndGlyphs" textLength="84">safetyTeam</text><path style="stroke: #A80036; stroke-width: 1.0;" fill="none" d="M38.03,230.5 C52.45,230.5 75.27,230.5 97.67,230.5 "/><path style="stroke: #A80036; stroke-width: 1.0;" fill="none" d="M236.23,230.5 C256.81,230.5 278.52,230.5 295.86,230.5 "/><path style="stroke: #A80036; stroke-width: 1.0;" fill="none" d="M366.3,271.91 C383.02,290.43 404.2,311.62 426,327.5 C436.77,335.35 449.58,342.27 461.33,347.85 "/><path style="stroke: #A80036; stroke-width: 1.0;" fill="none" d="M530.7,377.86 C563.3,393.64 614.19,418.29 649.86,435.57 "/><path style="stroke: #A80036; stroke-width: 1.0;" fill="none" d="M366.19,230.5 C386.29,230.5 412.31,230.5 435.84,230.5 "/><path style="stroke: #A80036; stroke-width: 1.0;" fill="none" d="M529.08,243.57 C541.86,249.35 556.82,256.44 570,263.5 C589.86,274.14 610.98,286.63 629.92,298.29 "/><path style="stroke: #A80036; stroke-width: 1.0;" fill="none" d="M366.19,217.03 C395.64,205.43 437.77,188.83 466.19,177.64 "/><path style="stroke: #A80036; stroke-width: 1.0;" fill="none" d="M533.77,153.91 C570.08,141.81 626.45,123.02 660.91,111.53 "/><path style="stroke: #A80036; stroke-width: 1.0;" fill="none" d="M537.39,176.3 C570.11,185.5 617,198.69 650.35,208.07 "/><path style="stroke: #A80036; stroke-width: 1.0;" fill="none" d="M649.91,415.87 C643.18,409.15 636.33,402.19 630,395.5 C602.28,366.24 602.43,351.43 570,327.5 C558.79,319.23 545.11,312.44 532.76,307.27 "/><path style="stroke: #A80036; stroke-width: 1.0;" fill="none" d="M542.57,305.03 C568.35,310.67 601.4,317.9 629.77,324.11 "/></g></svg>