<svg contentScriptType="text/ecmascript" width="1641px" xmlns:xlink="http://www.w3.org/1999/xlink" zoomAndPan="magnify" style="width:1641px;height:840px;" contentStyleType="text/css" viewBox="0 0 1641 840" height="840px" preserveAspectRatio="xMidYMid meet" xmlns="http://www.w3.org/2000/svg" version="1.1"><defs><filter x="-1" y="-1" width="300%" xmlns:xlink="http://www.w3.org/1999/xlink" xlink:type="simple" xlink:actuate="onLoad" height="300%" id="f1" xlink:show="other"><feGaussianBlur stdDeviation="2.0" result="blurOut"/><feColorMatrix values="0 0 0 0 0 0 0 0 0 0 0 0 0 0 0 0 0 0 .4 0" type="matrix" result="blurOut2" in="blurOut"/><feOffset dx="4.0" dy="4.0" result="blurOut3" in="blurOut2"/><feBlend mode="normal" in2="blurOut3" in="SourceGraphic"/></filter></defs><g><rect x="36.5" y="108" fill="#FFFFFF" width="1597.5" style="stroke: #000000; stroke-width: 2.0;" filter="url(#f1)" height="725"/><text x="806.75" font-size="14" y="122.9951" fill="#000000" font-family="sans-serif" font-weight="bold" lengthAdjust="spacingAndGlyphs" textLength="57">system</text><a xmlns:xlink="http://www.w3.org/1999/xlink" xlink:href="http://127.0.0.1:63320/node?ref=r%3A384b171f-9f99-4bec-9bb3-eff2f4cff2fd%28office_control.requirements%29%2F4079909686390798975" xlink:type="simple" xlink:title="http://127.0.0.1:63320/node?ref=r%3A384b171f-9f99-4bec-9bb3-eff2f4cff2fd%28office_control.requirements%29%2F4079909686390798975" target="_top" xlink:actuate="onRequest" xlink:show="replace"><ellipse fill="#FEFECE" style="stroke: #A80036; stroke-width: 2.0;" filter="url(#f1)" rx="8" cx="67.5" ry="8" cy="183.5"/><path fill="#FEFECE" d="M67.5,191.5 L67.5,218.5 M54.5,199.5 L80.5,199.5 M67.5,218.5 L54.5,233.5 M67.5,218.5 L80.5,233.5 " style="stroke: #A80036; stroke-width: 2.0;" filter="url(#f1)"/><text x="54" font-size="14" y="253.4951" fill="#000000" font-family="sans-serif" lengthAdjust="spacingAndGlyphs" textLength="27">hmi</text></a><a xmlns:xlink="http://www.w3.org/1999/xlink" xlink:href="http://127.0.0.1:63320/node?ref=r%3A384b171f-9f99-4bec-9bb3-eff2f4cff2fd%28office_control.requirements%29%2F4079909686390798501" xlink:type="simple" xlink:title="http://127.0.0.1:63320/node?ref=r%3A384b171f-9f99-4bec-9bb3-eff2f4cff2fd%28office_control.requirements%29%2F4079909686390798501" target="_top" xlink:actuate="onRequest" xlink:show="replace"><ellipse fill="#FEFECE" style="stroke: #A80036; stroke-width: 2.0;" filter="url(#f1)" rx="8" cx="430" ry="8" cy="212.5"/><path fill="#FEFECE" d="M430,220.5 L430,247.5 M417,228.5 L443,228.5 M430,247.5 L417,262.5 M430,247.5 L443,262.5 " style="stroke: #A80036; stroke-width: 2.0;" filter="url(#f1)"/><text x="391" font-size="14" y="282.4951" fill="#000000" font-family="sans-serif" lengthAdjust="spacingAndGlyphs" textLength="78">controlUnit</text></a><a xmlns:xlink="http://www.w3.org/1999/xlink" xlink:href="http://127.0.0.1:63320/node?ref=r%3A384b171f-9f99-4bec-9bb3-eff2f4cff2fd%28office_control.requirements%29%2F4079909686390799454" xlink:type="simple" xlink:title="http://127.0.0.1:63320/node?ref=r%3A384b171f-9f99-4bec-9bb3-eff2f4cff2fd%28office_control.requirements%29%2F4079909686390799454" target="_top" xlink:actuate="onRequest" xlink:show="replace"><ellipse fill="#FEFECE" style="stroke: #A80036; stroke-width: 2.0;" filter="url(#f1)" rx="8" cx="795" ry="8" cy="702.5"/><path fill="#FEFECE" d="M795,710.5 L795,737.5 M782,718.5 L808,718.5 M795,737.5 L782,752.5 M795,737.5 L808,752.5 " style="stroke: #A80036; stroke-width: 2.0;" filter="url(#f1)"/><text x="726" font-size="14" y="772.4951" fill="#000000" font-family="sans-serif" lengthAdjust="spacingAndGlyphs" textLength="138">ambLightController</text></a><a xmlns:xlink="http://www.w3.org/1999/xlink" xlink:href="http://127.0.0.1:63320/node?ref=r%3A384b171f-9f99-4bec-9bb3-eff2f4cff2fd%28office_control.requirements%29%2F4079909686390799246" xlink:type="simple" xlink:title="http://127.0.0.1:63320/node?ref=r%3A384b171f-9f99-4bec-9bb3-eff2f4cff2fd%28office_control.requirements%29%2F4079909686390799246" target="_top" xlink:actuate="onRequest" xlink:show="replace"><ellipse fill="#FEFECE" style="stroke: #A80036; stroke-width: 2.0;" filter="url(#f1)" rx="8" cx="795" ry="8" cy="536.5"/><path fill="#FEFECE" d="M795,544.5 L795,571.5 M782,552.5 L808,552.5 M795,571.5 L782,586.5 M795,571.5 L808,586.5 " style="stroke: #A80036; stroke-width: 2.0;" filter="url(#f1)"/><text x="741" font-size="14" y="606.4951" fill="#000000" font-family="sans-serif" lengthAdjust="spacingAndGlyphs" textLength="108">tempController</text></a><a xmlns:xlink="http://www.w3.org/1999/xlink" xlink:href="http://127.0.0.1:63320/node?ref=r%3A384b171f-9f99-4bec-9bb3-eff2f4cff2fd%28office_control.requirements%29%2F4079909686390798852" xlink:type="simple" xlink:title="http://127.0.0.1:63320/node?ref=r%3A384b171f-9f99-4bec-9bb3-eff2f4cff2fd%28office_control.requirements%29%2F4079909686390798852" target="_top" xlink:actuate="onRequest" xlink:show="replace"><ellipse fill="#FEFECE" style="stroke: #A80036; stroke-width: 2.0;" filter="url(#f1)" rx="8" cx="795" ry="8" cy="389.5"/><path fill="#FEFECE" d="M795,397.5 L795,424.5 M782,405.5 L808,405.5 M795,424.5 L782,439.5 M795,424.5 L808,439.5 " style="stroke: #A80036; stroke-width: 2.0;" filter="url(#f1)"/><text x="738.5" font-size="14" y="459.4951" fill="#000000" font-family="sans-serif" lengthAdjust="spacingAndGlyphs" textLength="113">blindsController</text></a><a xmlns:xlink="http://www.w3.org/1999/xlink" xlink:href="http://127.0.0.1:63320/node?ref=r%3A384b171f-9f99-4bec-9bb3-eff2f4cff2fd%28office_control.requirements%29%2F4079909686390798870" xlink:type="simple" xlink:title="http://127.0.0.1:63320/node?ref=r%3A384b171f-9f99-4bec-9bb3-eff2f4cff2fd%28office_control.requirements%29%2F4079909686390798870" target="_top" xlink:actuate="onRequest" xlink:show="replace"><ellipse fill="#FEFECE" style="stroke: #A80036; stroke-width: 2.0;" filter="url(#f1)" rx="8" cx="1225" ry="8" cy="507.5"/><path fill="#FEFECE" d="M1225,515.5 L1225,542.5 M1212,523.5 L1238,523.5 M1225,542.5 L1212,557.5 M1225,542.5 L1238,557.5 " style="stroke: #A80036; stroke-width: 2.0;" filter="url(#f1)"/><text x="1183.5" font-size="14" y="577.4951" fill="#000000" font-family="sans-serif" lengthAdjust="spacingAndGlyphs" textLength="83">blindsMotor</text></a><a xmlns:xlink="http://www.w3.org/1999/xlink" xlink:href="http://127.0.0.1:63320/node?ref=r%3A384b171f-9f99-4bec-9bb3-eff2f4cff2fd%28office_control.requirements%29%2F4079909686390798688" xlink:type="simple" xlink:title="http://127.0.0.1:63320/node?ref=r%3A384b171f-9f99-4bec-9bb3-eff2f4cff2fd%28office_control.requirements%29%2F4079909686390798688" target="_top" xlink:actuate="onRequest" xlink:show="replace"><ellipse fill="#FEFECE" style="stroke: #A80036; stroke-width: 2.0;" filter="url(#f1)" rx="8" cx="795" ry="8" cy="271.5"/><path fill="#FEFECE" d="M795,279.5 L795,306.5 M782,287.5 L808,287.5 M795,306.5 L782,321.5 M795,306.5 L808,321.5 " style="stroke: #A80036; stroke-width: 2.0;" filter="url(#f1)"/><text x="736" font-size="14" y="341.4951" fill="#000000" font-family="sans-serif" lengthAdjust="spacingAndGlyphs" textLength="118">heaterController</text></a><a xmlns:xlink="http://www.w3.org/1999/xlink" xlink:href="http://127.0.0.1:63320/node?ref=r%3A384b171f-9f99-4bec-9bb3-eff2f4cff2fd%28office_control.requirements%29%2F5832979856061161598" xlink:type="simple" xlink:title="http://127.0.0.1:63320/node?ref=r%3A384b171f-9f99-4bec-9bb3-eff2f4cff2fd%28office_control.requirements%29%2F5832979856061161598" target="_top" xlink:actuate="onRequest" xlink:show="replace"><ellipse fill="#FEFECE" style="stroke: #A80036; stroke-width: 2.0;" filter="url(#f1)" rx="8" cx="1225" ry="8" cy="271.5"/><path fill="#FEFECE" d="M1225,279.5 L1225,306.5 M1212,287.5 L1238,287.5 M1225,306.5 L1212,321.5 M1225,306.5 L1238,321.5 " style="stroke: #A80036; stroke-width: 2.0;" filter="url(#f1)"/><text x="1181.5" font-size="14" y="341.4951" fill="#000000" font-family="sans-serif" lengthAdjust="spacingAndGlyphs" textLength="87">heaterValve</text></a><a xmlns:xlink="http://www.w3.org/1999/xlink" xlink:href="http://127.0.0.1:63320/node?ref=r%3A384b171f-9f99-4bec-9bb3-eff2f4cff2fd%28office_control.requirements%29%2F4079909686390798834" xlink:type="simple" xlink:title="http://127.0.0.1:63320/node?ref=r%3A384b171f-9f99-4bec-9bb3-eff2f4cff2fd%28office_control.requirements%29%2F4079909686390798834" target="_top" xlink:actuate="onRequest" xlink:show="replace"><ellipse fill="#FEFECE" style="stroke: #A80036; stroke-width: 2.0;" filter="url(#f1)" rx="8" cx="795" ry="8" cy="153.5"/><path fill="#FEFECE" d="M795,161.5 L795,188.5 M782,169.5 L808,169.5 M795,188.5 L782,203.5 M795,188.5 L808,203.5 " style="stroke: #A80036; stroke-width: 2.0;" filter="url(#f1)"/><text x="740.5" font-size="14" y="223.4951" fill="#000000" font-family="sans-serif" lengthAdjust="spacingAndGlyphs" textLength="109">lightsController</text></a><a xmlns:xlink="http://www.w3.org/1999/xlink" xlink:href="http://127.0.0.1:63320/node?ref=r%3A384b171f-9f99-4bec-9bb3-eff2f4cff2fd%28office_control.requirements%29%2F4079909686390799446" xlink:type="simple" xlink:title="http://127.0.0.1:63320/node?ref=r%3A384b171f-9f99-4bec-9bb3-eff2f4cff2fd%28office_control.requirements%29%2F4079909686390799446" target="_top" xlink:actuate="onRequest" xlink:show="replace"><ellipse fill="#FEFECE" style="stroke: #A80036; stroke-width: 2.0;" filter="url(#f1)" rx="8" cx="1225" ry="8" cy="743.5"/><path fill="#FEFECE" d="M1225,751.5 L1225,778.5 M1212,759.5 L1238,759.5 M1225,778.5 L1212,793.5 M1225,778.5 L1238,793.5 " style="stroke: #A80036; stroke-width: 2.0;" filter="url(#f1)"/><text x="1169" font-size="14" y="813.4951" fill="#000000" font-family="sans-serif" lengthAdjust="spacingAndGlyphs" textLength="112">amblightSensor</text></a><a xmlns:xlink="http://www.w3.org/1999/xlink" xlink:href="http://127.0.0.1:63320/node?ref=r%3A384b171f-9f99-4bec-9bb3-eff2f4cff2fd%28office_control.requirements%29%2F4079909686390799238" xlink:type="simple" xlink:title="http://127.0.0.1:63320/node?ref=r%3A384b171f-9f99-4bec-9bb3-eff2f4cff2fd%28office_control.requirements%29%2F4079909686390799238" target="_top" xlink:actuate="onRequest" xlink:show="replace"><ellipse fill="#FEFECE" style="stroke: #A80036; stroke-width: 2.0;" filter="url(#f1)" rx="8" cx="1225" ry="8" cy="625.5"/><path fill="#FEFECE" d="M1225,633.5 L1225,660.5 M1212,641.5 L1238,641.5 M1225,660.5 L1212,675.5 M1225,660.5 L1238,675.5 " style="stroke: #A80036; stroke-width: 2.0;" filter="url(#f1)"/><text x="1182" font-size="14" y="695.4951" fill="#000000" font-family="sans-serif" lengthAdjust="spacingAndGlyphs" textLength="86">tempSensor</text></a><a xmlns:xlink="http://www.w3.org/1999/xlink" xlink:href="http://127.0.0.1:63320/node?ref=r%3A384b171f-9f99-4bec-9bb3-eff2f4cff2fd%28office_control.requirements%29%2F4079909686390800052" xlink:type="simple" xlink:title="http://127.0.0.1:63320/node?ref=r%3A384b171f-9f99-4bec-9bb3-eff2f4cff2fd%28office_control.requirements%29%2F4079909686390800052" target="_top" xlink:actuate="onRequest" xlink:show="replace"><ellipse fill="#FEFECE" style="stroke: #A80036; stroke-width: 2.0;" filter="url(#f1)" rx="8" cx="1225" ry="8" cy="389.5"/><path fill="#FEFECE" d="M1225,397.5 L1225,424.5 M1212,405.5 L1238,405.5 M1225,424.5 L1212,439.5 M1225,424.5 L1238,439.5 " style="stroke: #A80036; stroke-width: 2.0;" filter="url(#f1)"/><text x="1176.5" font-size="14" y="459.4951" fill="#000000" font-family="sans-serif" lengthAdjust="spacingAndGlyphs" textLength="97">blindsPosition</text></a><a xmlns:xlink="http://www.w3.org/1999/xlink" xlink:href="http://127.0.0.1:63320/node?ref=r%3A384b171f-9f99-4bec-9bb3-eff2f4cff2fd%28office_control.requirements%29%2F4079909686390798649" xlink:type="simple" xlink:title="http://127.0.0.1:63320/node?ref=r%3A384b171f-9f99-4bec-9bb3-eff2f4cff2fd%28office_control.requirements%29%2F4079909686390798649" target="_top" xlink:actuate="onRequest" xlink:show="replace"><ellipse fill="#FEFECE" style="stroke: #A80036; stroke-width: 2.0;" filter="url(#f1)" rx="8" cx="1594.5" ry="8" cy="507.5"/><path fill="#FEFECE" d="M1594.5,515.5 L1594.5,542.5 M1581.5,523.5 L1607.5,523.5 M1594.5,542.5 L1581.5,557.5 M1594.5,542.5 L1607.5,557.5 " style="stroke: #A80036; stroke-width: 2.0;" filter="url(#f1)"/><text x="1573.5" font-size="14" y="577.4951" fill="#000000" font-family="sans-serif" lengthAdjust="spacingAndGlyphs" textLength="42">blinds</text></a><a xmlns:xlink="http://www.w3.org/1999/xlink" xlink:href="http://127.0.0.1:63320/node?ref=r%3A384b171f-9f99-4bec-9bb3-eff2f4cff2fd%28office_control.requirements%29%2F4079909686390798561" xlink:type="simple" xlink:title="http://127.0.0.1:63320/node?ref=r%3A384b171f-9f99-4bec-9bb3-eff2f4cff2fd%28office_control.requirements%29%2F4079909686390798561" target="_top" xlink:actuate="onRequest" xlink:show="replace"><ellipse fill="#FEFECE" style="stroke: #A80036; stroke-width: 2.0;" filter="url(#f1)" rx="8" cx="1594.5" ry="8" cy="271.5"/><path fill="#FEFECE" d="M1594.5,279.5 L1594.5,306.5 M1581.5,287.5 L1607.5,287.5 M1594.5,306.5 L1581.5,321.5 M1594.5,306.5 L1607.5,321.5 " style="stroke: #A80036; stroke-width: 2.0;" filter="url(#f1)"/><text x="1571" font-size="14" y="341.4951" fill="#000000" font-family="sans-serif" lengthAdjust="spacingAndGlyphs" textLength="47">heater</text></a><a xmlns:xlink="http://www.w3.org/1999/xlink" xlink:href="http://127.0.0.1:63320/node?ref=r%3A384b171f-9f99-4bec-9bb3-eff2f4cff2fd%28office_control.requirements%29%2F4079909686390798618" xlink:type="simple" xlink:title="http://127.0.0.1:63320/node?ref=r%3A384b171f-9f99-4bec-9bb3-eff2f4cff2fd%28office_control.requirements%29%2F4079909686390798618" target="_top" xlink:actuate="onRequest" xlink:show="replace"><ellipse fill="#FEFECE" style="stroke: #A80036; stroke-width: 2.0;" filter="url(#f1)" rx="8" cx="1225" ry="8" cy="153.5"/><path fill="#FEFECE" d="M1225,161.5 L1225,188.5 M1212,169.5 L1238,169.5 M1225,188.5 L1212,203.5 M1225,188.5 L1238,203.5 " style="stroke: #A80036; stroke-width: 2.0;" filter="url(#f1)"/><text x="1206" font-size="14" y="223.4951" fill="#000000" font-family="sans-serif" lengthAdjust="spacingAndGlyphs" textLength="38">lights</text></a><a xmlns:xlink="http://www.w3.org/1999/xlink" xlink:href="http://127.0.0.1:63320/node?ref=r%3A384b171f-9f99-4bec-9bb3-eff2f4cff2fd%28office_control.requirements%29%2F5832979856061161858" xlink:type="simple" xlink:title="http://127.0.0.1:63320/node?ref=r%3A384b171f-9f99-4bec-9bb3-eff2f4cff2fd%28office_control.requirements%29%2F5832979856061161858" target="_top" xlink:actuate="onRequest" xlink:show="replace"><ellipse fill="#FEFECE" style="stroke: #A80036; stroke-width: 1.5;" filter="url(#f1)" rx="71.0454" cx="260.0454" ry="16.6091" cy="215.1091"/><text x="205.5454" font-size="14" y="219.7575" fill="#000000" font-family="sans-serif" lengthAdjust="spacingAndGlyphs" textLength="109">getRoomStatus</text></a><a xmlns:xlink="http://www.w3.org/1999/xlink" xlink:href="http://127.0.0.1:63320/node?ref=r%3A384b171f-9f99-4bec-9bb3-eff2f4cff2fd%28office_control.requirements%29%2F5832979856061160501" xlink:type="simple" xlink:title="http://127.0.0.1:63320/node?ref=r%3A384b171f-9f99-4bec-9bb3-eff2f4cff2fd%28office_control.requirements%29%2F5832979856061160501" target="_top" xlink:actuate="onRequest" xlink:show="replace"><ellipse fill="#FEFECE" style="stroke: #A80036; stroke-width: 1.5;" filter="url(#f1)" rx="68.2758" cx="597.2758" ry="16.0552" cy="362.0552"/><text x="546.2758" font-size="14" y="366.7036" fill="#000000" font-family="sans-serif" lengthAdjust="spacingAndGlyphs" textLength="102">controlSystem</text></a><a xmlns:xlink="http://www.w3.org/1999/xlink" xlink:href="http://127.0.0.1:63320/node?ref=r%3A384b171f-9f99-4bec-9bb3-eff2f4cff2fd%28office_control.requirements%29%2F5832979856061161126" xlink:type="simple" xlink:title="http://127.0.0.1:63320/node?ref=r%3A384b171f-9f99-4bec-9bb3-eff2f4cff2fd%28office_control.requirements%29%2F5832979856061161126" target="_top" xlink:actuate="onRequest" xlink:show="replace"><ellipse fill="#FEFECE" style="stroke: #A80036; stroke-width: 1.5;" filter="url(#f1)" rx="92.3318" cx="1016.3318" ry="20.8664" cy="768.8664"/><text x="936.8318" font-size="14" y="773.5148" fill="#000000" font-family="sans-serif" lengthAdjust="spacingAndGlyphs" textLength="159">getAmbientLightValue</text></a><a xmlns:xlink="http://www.w3.org/1999/xlink" xlink:href="http://127.0.0.1:63320/node?ref=r%3A384b171f-9f99-4bec-9bb3-eff2f4cff2fd%28office_control.requirements%29%2F5832979856061161284" xlink:type="simple" xlink:title="http://127.0.0.1:63320/node?ref=r%3A384b171f-9f99-4bec-9bb3-eff2f4cff2fd%28office_control.requirements%29%2F5832979856061161284" target="_top" xlink:actuate="onRequest" xlink:show="replace"><ellipse fill="#FEFECE" style="stroke: #A80036; stroke-width: 1.5;" filter="url(#f1)" rx="91.8872" cx="1016.3872" ry="20.7774" cy="596.7774"/><text x="937.3872" font-size="14" y="601.4259" fill="#000000" font-family="sans-serif" lengthAdjust="spacingAndGlyphs" textLength="158">getTemperatureValue</text></a><a xmlns:xlink="http://www.w3.org/1999/xlink" xlink:href="http://127.0.0.1:63320/node?ref=r%3A384b171f-9f99-4bec-9bb3-eff2f4cff2fd%28office_control.requirements%29%2F5832979856061161386" xlink:type="simple" xlink:title="http://127.0.0.1:63320/node?ref=r%3A384b171f-9f99-4bec-9bb3-eff2f4cff2fd%28office_control.requirements%29%2F5832979856061161386" target="_top" xlink:actuate="onRequest" xlink:show="replace"><ellipse fill="#FEFECE" style="stroke: #A80036; stroke-width: 1.5;" filter="url(#f1)" rx="65.9597" cx="1016.4597" ry="15.5919" cy="513.0919"/><text x="968.4597" font-size="14" y="517.7404" fill="#000000" font-family="sans-serif" lengthAdjust="spacingAndGlyphs" textLength="96">changeBlinds</text></a><a xmlns:xlink="http://www.w3.org/1999/xlink" xlink:href="http://127.0.0.1:63320/node?ref=r%3A384b171f-9f99-4bec-9bb3-eff2f4cff2fd%28office_control.requirements%29%2F5832979856061161499" xlink:type="simple" xlink:title="http://127.0.0.1:63320/node?ref=r%3A384b171f-9f99-4bec-9bb3-eff2f4cff2fd%28office_control.requirements%29%2F5832979856061161499" target="_top" xlink:actuate="onRequest" xlink:show="replace"><ellipse fill="#FEFECE" style="stroke: #A80036; stroke-width: 1.5;" filter="url(#f1)" rx="75.9395" cx="1016.4395" ry="17.5879" cy="421.0879"/><text x="955.9395" font-size="14" y="425.7363" fill="#000000" font-family="sans-serif" lengthAdjust="spacingAndGlyphs" textLength="121">getBlindsPosition</text></a><a xmlns:xlink="http://www.w3.org/1999/xlink" xlink:href="http://127.0.0.1:63320/node?ref=r%3A384b171f-9f99-4bec-9bb3-eff2f4cff2fd%28office_control.requirements%29%2F5832979856061161440" xlink:type="simple" xlink:title="http://127.0.0.1:63320/node?ref=r%3A384b171f-9f99-4bec-9bb3-eff2f4cff2fd%28office_control.requirements%29%2F5832979856061161440" target="_top" xlink:actuate="onRequest" xlink:show="replace"><ellipse fill="#FEFECE" style="stroke: #A80036; stroke-width: 1.5;" filter="url(#f1)" rx="61.1565" cx="1426.1565" ry="14.6313" cy="539.1313"/><text x="1384.6565" font-size="14" y="543.7797" fill="#000000" font-family="sans-serif" lengthAdjust="spacingAndGlyphs" textLength="83">moveBlinds</text></a><a xmlns:xlink="http://www.w3.org/1999/xlink" xlink:href="http://127.0.0.1:63320/node?ref=r%3A384b171f-9f99-4bec-9bb3-eff2f4cff2fd%28office_control.requirements%29%2F5832979856061161543" xlink:type="simple" xlink:title="http://127.0.0.1:63320/node?ref=r%3A384b171f-9f99-4bec-9bb3-eff2f4cff2fd%28office_control.requirements%29%2F5832979856061161543" target="_top" xlink:actuate="onRequest" xlink:show="replace"><ellipse fill="#FEFECE" style="stroke: #A80036; stroke-width: 1.5;" filter="url(#f1)" rx="87.0368" cx="1016.5368" ry="19.8074" cy="302.8074"/><text x="943.0368" font-size="14" y="307.4558" fill="#000000" font-family="sans-serif" lengthAdjust="spacingAndGlyphs" textLength="147">changeTemperature</text></a><a xmlns:xlink="http://www.w3.org/1999/xlink" xlink:href="http://127.0.0.1:63320/node?ref=r%3A384b171f-9f99-4bec-9bb3-eff2f4cff2fd%28office_control.requirements%29%2F5832979856061161745" xlink:type="simple" xlink:title="http://127.0.0.1:63320/node?ref=r%3A384b171f-9f99-4bec-9bb3-eff2f4cff2fd%28office_control.requirements%29%2F5832979856061161745" target="_top" xlink:actuate="onRequest" xlink:show="replace"><ellipse fill="#FEFECE" style="stroke: #A80036; stroke-width: 1.5;" filter="url(#f1)" rx="84.8592" cx="1425.8592" ry="19.3718" cy="302.8718"/><text x="1354.8592" font-size="14" y="307.5203" fill="#000000" font-family="sans-serif" lengthAdjust="spacingAndGlyphs" textLength="142">changeHeaterValve</text></a><a xmlns:xlink="http://www.w3.org/1999/xlink" xlink:href="http://127.0.0.1:63320/node?ref=r%3A384b171f-9f99-4bec-9bb3-eff2f4cff2fd%28office_control.requirements%29%2F5832979856061161799" xlink:type="simple" xlink:title="http://127.0.0.1:63320/node?ref=r%3A384b171f-9f99-4bec-9bb3-eff2f4cff2fd%28office_control.requirements%29%2F5832979856061161799" target="_top" xlink:actuate="onRequest" xlink:show="replace"><ellipse fill="#FEFECE" style="stroke: #A80036; stroke-width: 1.5;" filter="url(#f1)" rx="65.5794" cx="1016.5794" ry="15.5159" cy="185.0159"/><text x="969.0794" font-size="14" y="189.6643" fill="#000000" font-family="sans-serif" lengthAdjust="spacingAndGlyphs" textLength="95">changeLights</text></a><ellipse fill="#FEFECE" style="stroke: #A80036; stroke-width: 2.0;" filter="url(#f1)" rx="8" cx="67.5" ry="8" cy="18.5"/><path fill="#FEFECE" d="M67.5,26.5 L67.5,53.5 M54.5,34.5 L80.5,34.5 M67.5,53.5 L54.5,68.5 M67.5,53.5 L80.5,68.5 " style="stroke: #A80036; stroke-width: 2.0;" filter="url(#f1)"/><text x="6" font-size="14" y="88.4951" fill="#000000" font-family="sans-serif" lengthAdjust="spacingAndGlyphs" textLength="123">maintenanceDep</text><path style="stroke: #A80036; stroke-width: 1.0;" fill="none" d="M82.51,215 C104.76,215 149.66,215 188.61,215 "/><path style="stroke: #A80036; stroke-width: 1.0;" fill="none" d="M116.57,91.64 C156.69,126.39 211.75,174.08 240.23,198.75 "/><path style="stroke: #A80036; stroke-width: 1.0;" fill="none" d="M317.41,224.74 C341.62,228.92 369.27,233.69 390.99,237.44 "/><path style="stroke: #A80036; stroke-width: 1.0;" fill="none" d="M469.39,271.37 C502.23,294.79 548.32,327.65 575.03,346.69 "/><path style="stroke: #A80036; stroke-width: 1.0;" fill="none" d="M605.48,378.16 C623.73,420.06 675.03,535.29 726,627 C738.24,649.03 753.14,672.76 765.86,692.26 "/><path style="stroke: #A80036; stroke-width: 1.0;" fill="none" d="M640.44,374.66 C669.05,383.29 707.25,394.82 738.4,404.22 "/><path style="stroke: #A80036; stroke-width: 1.0;" fill="none" d="M640.44,349.34 C668.26,340.95 705.16,329.81 735.82,320.56 "/><path style="stroke: #A80036; stroke-width: 1.0;" fill="none" d="M615.25,346.17 C639.48,323.37 685.79,280.03 726,244 C732.29,238.37 738.94,232.49 745.54,226.71 "/><path style="stroke: #A80036; stroke-width: 1.0;" fill="none" d="M613.52,377.82 C643.38,409.29 711.09,480.63 754.55,526.43 "/><path style="stroke: #A80036; stroke-width: 1.0;" fill="none" d="M864.25,744.88 C888.41,748.74 915.72,753.09 940.42,757.03 "/><path style="stroke: #A80036; stroke-width: 1.0;" fill="none" d="M1108.37,771.64 C1128.93,772.24 1150.16,772.85 1168.72,773.39 "/><path style="stroke: #A80036; stroke-width: 1.0;" fill="none" d="M849.13,575.02 C875.27,578.47 907.31,582.71 936.27,586.53 "/><path style="stroke: #A80036; stroke-width: 1.0;" fill="none" d="M1074.2,613.47 C1108.23,623.36 1150.79,635.73 1181.84,644.75 "/><path style="stroke: #A80036; stroke-width: 1.0;" fill="none" d="M851.67,444.33 C893.33,461.8 948.85,485.06 983.37,499.53 "/><path style="stroke: #A80036; stroke-width: 1.0;" fill="none" d="M1075.02,520.24 C1109.51,524.58 1152.53,530 1183.46,533.9 "/><path style="stroke: #A80036; stroke-width: 1.0;" fill="none" d="M851.67,421 C878.6,421 911.31,421 940.41,421 "/><path style="stroke: #A80036; stroke-width: 1.0;" fill="none" d="M1092.64,421 C1120.54,421 1151.42,421 1176.22,421 "/><path style="stroke: #A80036; stroke-width: 1.0;" fill="none" d="M1266.75,539 C1294.95,539 1332.96,539 1364.66,539 "/><path style="stroke: #A80036; stroke-width: 1.0;" fill="none" d="M1487.11,539 C1517.29,539 1551.88,539 1573.21,539 "/><path style="stroke: #A80036; stroke-width: 1.0;" fill="none" d="M854.25,303 C877.23,303 904.12,303 929.28,303 "/><path style="stroke: #A80036; stroke-width: 1.0;" fill="none" d="M1103.58,303 C1130.47,303 1158.96,303 1181.48,303 "/><path style="stroke: #A80036; stroke-width: 1.0;" fill="none" d="M1268.69,303 C1289.7,303 1315.8,303 1340.62,303 "/><path style="stroke: #A80036; stroke-width: 1.0;" fill="none" d="M1511.23,303 C1533.16,303 1555.01,303 1570.68,303 "/><path style="stroke: #A80036; stroke-width: 1.0;" fill="none" d="M849.7,185 C880.16,185 918.49,185 950.63,185 "/><path style="stroke: #A80036; stroke-width: 1.0;" fill="none" d="M1082.27,185 C1125.09,185 1178.21,185 1205.66,185 "/></g></svg>