<svg contentScriptType="text/ecmascript" width="1914px" xmlns:xlink="http://www.w3.org/1999/xlink" zoomAndPan="magnify" style="width:1914px;height:846px;" contentStyleType="text/css" viewBox="0 0 1914 846" height="846px" preserveAspectRatio="xMidYMid meet" xmlns="http://www.w3.org/2000/svg" version="1.1"><defs><filter x="-1" y="-1" width="300%" xmlns:xlink="http://www.w3.org/1999/xlink" xlink:type="simple" xlink:actuate="onLoad" height="300%" id="f1" xlink:show="other"><feGaussianBlur stdDeviation="2.0" result="blurOut"/><feColorMatrix values="0 0 0 0 0 0 0 0 0 0 0 0 0 0 0 0 0 0 .4 0" type="matrix" result="blurOut2" in="blurOut"/><feOffset dx="4.0" dy="4.0" result="blurOut3" in="blurOut2"/><feBlend mode="normal" in2="blurOut3" in="SourceGraphic"/></filter></defs><g><rect x="81" y="24.5" fill="#FFFFFF" width="1826" style="stroke: #000000; stroke-width: 2.0;" filter="url(#f1)" height="725"/><text x="965.5" font-size="14" y="39.4951" fill="#000000" font-family="sans-serif" font-weight="bold" lengthAdjust="spacingAndGlyphs" textLength="57">system</text><a xmlns:xlink="http://www.w3.org/1999/xlink" xlink:href="http://127.0.0.1:63320/node?ref=r%3A384b171f-9f99-4bec-9bb3-eff2f4cff2fd%28office_control.requirements%29%2F4079909686390798975" xlink:type="simple" xlink:title="http://127.0.0.1:63320/node?ref=r%3A384b171f-9f99-4bec-9bb3-eff2f4cff2fd%28office_control.requirements%29%2F4079909686390798975" target="_top" xlink:actuate="onRequest" xlink:show="replace"><ellipse fill="#FEFECE" style="stroke: #A80036; stroke-width: 2.0;" filter="url(#f1)" rx="8" cx="340.5" ry="8" cy="600"/><path fill="#FEFECE" d="M340.5,608 L340.5,635 M327.5,616 L353.5,616 M340.5,635 L327.5,650 M340.5,635 L353.5,650 " style="stroke: #A80036; stroke-width: 2.0;" filter="url(#f1)"/><text x="327" font-size="14" y="669.9951" fill="#000000" font-family="sans-serif" lengthAdjust="spacingAndGlyphs" textLength="27">hmi</text></a><a xmlns:xlink="http://www.w3.org/1999/xlink" xlink:href="http://127.0.0.1:63320/node?ref=r%3A384b171f-9f99-4bec-9bb3-eff2f4cff2fd%28office_control.requirements%29%2F4079909686390798501" xlink:type="simple" xlink:title="http://127.0.0.1:63320/node?ref=r%3A384b171f-9f99-4bec-9bb3-eff2f4cff2fd%28office_control.requirements%29%2F4079909686390798501" target="_top" xlink:actuate="onRequest" xlink:show="replace"><ellipse fill="#FEFECE" style="stroke: #A80036; stroke-width: 2.0;" filter="url(#f1)" rx="8" cx="703" ry="8" cy="541"/><path fill="#FEFECE" d="M703,549 L703,576 M690,557 L716,557 M703,576 L690,591 M703,576 L716,591 " style="stroke: #A80036; stroke-width: 2.0;" filter="url(#f1)"/><text x="664" font-size="14" y="610.9951" fill="#000000" font-family="sans-serif" lengthAdjust="spacingAndGlyphs" textLength="78">controlUnit</text></a><a xmlns:xlink="http://www.w3.org/1999/xlink" xlink:href="http://127.0.0.1:63320/node?ref=r%3A384b171f-9f99-4bec-9bb3-eff2f4cff2fd%28office_control.requirements%29%2F4079909686390799454" xlink:type="simple" xlink:title="http://127.0.0.1:63320/node?ref=r%3A384b171f-9f99-4bec-9bb3-eff2f4cff2fd%28office_control.requirements%29%2F4079909686390799454" target="_top" xlink:actuate="onRequest" xlink:show="replace"><ellipse fill="#FEFECE" style="stroke: #A80036; stroke-width: 2.0;" filter="url(#f1)" rx="8" cx="1068" ry="8" cy="660"/><path fill="#FEFECE" d="M1068,668 L1068,695 M1055,676 L1081,676 M1068,695 L1055,710 M1068,695 L1081,710 " style="stroke: #A80036; stroke-width: 2.0;" filter="url(#f1)"/><text x="999" font-size="14" y="729.9951" fill="#000000" font-family="sans-serif" lengthAdjust="spacingAndGlyphs" textLength="138">ambLightController</text></a><a xmlns:xlink="http://www.w3.org/1999/xlink" xlink:href="http://127.0.0.1:63320/node?ref=r%3A384b171f-9f99-4bec-9bb3-eff2f4cff2fd%28office_control.requirements%29%2F4079909686390799246" xlink:type="simple" xlink:title="http://127.0.0.1:63320/node?ref=r%3A384b171f-9f99-4bec-9bb3-eff2f4cff2fd%28office_control.requirements%29%2F4079909686390799246" target="_top" xlink:actuate="onRequest" xlink:show="replace"><ellipse fill="#FEFECE" style="stroke: #A80036; stroke-width: 2.0;" filter="url(#f1)" rx="8" cx="1068" ry="8" cy="542"/><path fill="#FEFECE" d="M1068,550 L1068,577 M1055,558 L1081,558 M1068,577 L1055,592 M1068,577 L1081,592 " style="stroke: #A80036; stroke-width: 2.0;" filter="url(#f1)"/><text x="1014" font-size="14" y="611.9951" fill="#000000" font-family="sans-serif" lengthAdjust="spacingAndGlyphs" textLength="108">tempController</text></a><a xmlns:xlink="http://www.w3.org/1999/xlink" xlink:href="http://127.0.0.1:63320/node?ref=r%3A384b171f-9f99-4bec-9bb3-eff2f4cff2fd%28office_control.requirements%29%2F4079909686390798852" xlink:type="simple" xlink:title="http://127.0.0.1:63320/node?ref=r%3A384b171f-9f99-4bec-9bb3-eff2f4cff2fd%28office_control.requirements%29%2F4079909686390798852" target="_top" xlink:actuate="onRequest" xlink:show="replace"><ellipse fill="#FEFECE" style="stroke: #A80036; stroke-width: 2.0;" filter="url(#f1)" rx="8" cx="1068" ry="8" cy="424"/><path fill="#FEFECE" d="M1068,432 L1068,459 M1055,440 L1081,440 M1068,459 L1055,474 M1068,459 L1081,474 " style="stroke: #A80036; stroke-width: 2.0;" filter="url(#f1)"/><text x="1011.5" font-size="14" y="493.9951" fill="#000000" font-family="sans-serif" lengthAdjust="spacingAndGlyphs" textLength="113">blindsController</text></a><a xmlns:xlink="http://www.w3.org/1999/xlink" xlink:href="http://127.0.0.1:63320/node?ref=r%3A384b171f-9f99-4bec-9bb3-eff2f4cff2fd%28office_control.requirements%29%2F4079909686390798870" xlink:type="simple" xlink:title="http://127.0.0.1:63320/node?ref=r%3A384b171f-9f99-4bec-9bb3-eff2f4cff2fd%28office_control.requirements%29%2F4079909686390798870" target="_top" xlink:actuate="onRequest" xlink:show="replace"><ellipse fill="#FEFECE" style="stroke: #A80036; stroke-width: 2.0;" filter="url(#f1)" rx="8" cx="1498" ry="8" cy="424"/><path fill="#FEFECE" d="M1498,432 L1498,459 M1485,440 L1511,440 M1498,459 L1485,474 M1498,459 L1511,474 " style="stroke: #A80036; stroke-width: 2.0;" filter="url(#f1)"/><text x="1456.5" font-size="14" y="493.9951" fill="#000000" font-family="sans-serif" lengthAdjust="spacingAndGlyphs" textLength="83">blindsMotor</text></a><a xmlns:xlink="http://www.w3.org/1999/xlink" xlink:href="http://127.0.0.1:63320/node?ref=r%3A384b171f-9f99-4bec-9bb3-eff2f4cff2fd%28office_control.requirements%29%2F4079909686390798688" xlink:type="simple" xlink:title="http://127.0.0.1:63320/node?ref=r%3A384b171f-9f99-4bec-9bb3-eff2f4cff2fd%28office_control.requirements%29%2F4079909686390798688" target="_top" xlink:actuate="onRequest" xlink:show="replace"><ellipse fill="#FEFECE" style="stroke: #A80036; stroke-width: 2.0;" filter="url(#f1)" rx="8" cx="1068" ry="8" cy="293"/><path fill="#FEFECE" d="M1068,301 L1068,328 M1055,309 L1081,309 M1068,328 L1055,343 M1068,328 L1081,343 " style="stroke: #A80036; stroke-width: 2.0;" filter="url(#f1)"/><text x="1009" font-size="14" y="362.9951" fill="#000000" font-family="sans-serif" lengthAdjust="spacingAndGlyphs" textLength="118">heaterController</text></a><a xmlns:xlink="http://www.w3.org/1999/xlink" xlink:href="http://127.0.0.1:63320/node?ref=r%3A384b171f-9f99-4bec-9bb3-eff2f4cff2fd%28office_control.requirements%29%2F5832979856061161598" xlink:type="simple" xlink:title="http://127.0.0.1:63320/node?ref=r%3A384b171f-9f99-4bec-9bb3-eff2f4cff2fd%28office_control.requirements%29%2F5832979856061161598" target="_top" xlink:actuate="onRequest" xlink:show="replace"><ellipse fill="#FEFECE" style="stroke: #A80036; stroke-width: 2.0;" filter="url(#f1)" rx="8" cx="1498" ry="8" cy="188"/><path fill="#FEFECE" d="M1498,196 L1498,223 M1485,204 L1511,204 M1498,223 L1485,238 M1498,223 L1511,238 " style="stroke: #A80036; stroke-width: 2.0;" filter="url(#f1)"/><text x="1454.5" font-size="14" y="257.9951" fill="#000000" font-family="sans-serif" lengthAdjust="spacingAndGlyphs" textLength="87">heaterValve</text></a><a xmlns:xlink="http://www.w3.org/1999/xlink" xlink:href="http://127.0.0.1:63320/node?ref=r%3A384b171f-9f99-4bec-9bb3-eff2f4cff2fd%28office_control.requirements%29%2F4079909686390798834" xlink:type="simple" xlink:title="http://127.0.0.1:63320/node?ref=r%3A384b171f-9f99-4bec-9bb3-eff2f4cff2fd%28office_control.requirements%29%2F4079909686390798834" target="_top" xlink:actuate="onRequest" xlink:show="replace"><ellipse fill="#FEFECE" style="stroke: #A80036; stroke-width: 2.0;" filter="url(#f1)" rx="8" cx="1068" ry="8" cy="169"/><path fill="#FEFECE" d="M1068,177 L1068,204 M1055,185 L1081,185 M1068,204 L1055,219 M1068,204 L1081,219 " style="stroke: #A80036; stroke-width: 2.0;" filter="url(#f1)"/><text x="1013.5" font-size="14" y="238.9951" fill="#000000" font-family="sans-serif" lengthAdjust="spacingAndGlyphs" textLength="109">lightsController</text></a><a xmlns:xlink="http://www.w3.org/1999/xlink" xlink:href="http://127.0.0.1:63320/node?ref=r%3A384b171f-9f99-4bec-9bb3-eff2f4cff2fd%28office_control.requirements%29%2F4079909686390799446" xlink:type="simple" xlink:title="http://127.0.0.1:63320/node?ref=r%3A384b171f-9f99-4bec-9bb3-eff2f4cff2fd%28office_control.requirements%29%2F4079909686390799446" target="_top" xlink:actuate="onRequest" xlink:show="replace"><ellipse fill="#FEFECE" style="stroke: #A80036; stroke-width: 2.0;" filter="url(#f1)" rx="8" cx="1498" ry="8" cy="660"/><path fill="#FEFECE" d="M1498,668 L1498,695 M1485,676 L1511,676 M1498,695 L1485,710 M1498,695 L1511,710 " style="stroke: #A80036; stroke-width: 2.0;" filter="url(#f1)"/><text x="1442" font-size="14" y="729.9951" fill="#000000" font-family="sans-serif" lengthAdjust="spacingAndGlyphs" textLength="112">amblightSensor</text></a><a xmlns:xlink="http://www.w3.org/1999/xlink" xlink:href="http://127.0.0.1:63320/node?ref=r%3A384b171f-9f99-4bec-9bb3-eff2f4cff2fd%28office_control.requirements%29%2F4079909686390799238" xlink:type="simple" xlink:title="http://127.0.0.1:63320/node?ref=r%3A384b171f-9f99-4bec-9bb3-eff2f4cff2fd%28office_control.requirements%29%2F4079909686390799238" target="_top" xlink:actuate="onRequest" xlink:show="replace"><ellipse fill="#FEFECE" style="stroke: #A80036; stroke-width: 2.0;" filter="url(#f1)" rx="8" cx="1498" ry="8" cy="542"/><path fill="#FEFECE" d="M1498,550 L1498,577 M1485,558 L1511,558 M1498,577 L1485,592 M1498,577 L1511,592 " style="stroke: #A80036; stroke-width: 2.0;" filter="url(#f1)"/><text x="1455" font-size="14" y="611.9951" fill="#000000" font-family="sans-serif" lengthAdjust="spacingAndGlyphs" textLength="86">tempSensor</text></a><a xmlns:xlink="http://www.w3.org/1999/xlink" xlink:href="http://127.0.0.1:63320/node?ref=r%3A384b171f-9f99-4bec-9bb3-eff2f4cff2fd%28office_control.requirements%29%2F4079909686390800052" xlink:type="simple" xlink:title="http://127.0.0.1:63320/node?ref=r%3A384b171f-9f99-4bec-9bb3-eff2f4cff2fd%28office_control.requirements%29%2F4079909686390800052" target="_top" xlink:actuate="onRequest" xlink:show="replace"><ellipse fill="#FEFECE" style="stroke: #A80036; stroke-width: 2.0;" filter="url(#f1)" rx="8" cx="1498" ry="8" cy="306"/><path fill="#FEFECE" d="M1498,314 L1498,341 M1485,322 L1511,322 M1498,341 L1485,356 M1498,341 L1511,356 " style="stroke: #A80036; stroke-width: 2.0;" filter="url(#f1)"/><text x="1449.5" font-size="14" y="375.9951" fill="#000000" font-family="sans-serif" lengthAdjust="spacingAndGlyphs" textLength="97">blindsPosition</text></a><a xmlns:xlink="http://www.w3.org/1999/xlink" xlink:href="http://127.0.0.1:63320/node?ref=r%3A384b171f-9f99-4bec-9bb3-eff2f4cff2fd%28office_control.requirements%29%2F4079909686390798649" xlink:type="simple" xlink:title="http://127.0.0.1:63320/node?ref=r%3A384b171f-9f99-4bec-9bb3-eff2f4cff2fd%28office_control.requirements%29%2F4079909686390798649" target="_top" xlink:actuate="onRequest" xlink:show="replace"><ellipse fill="#FEFECE" style="stroke: #A80036; stroke-width: 2.0;" filter="url(#f1)" rx="8" cx="1867.5" ry="8" cy="424"/><path fill="#FEFECE" d="M1867.5,432 L1867.5,459 M1854.5,440 L1880.5,440 M1867.5,459 L1854.5,474 M1867.5,459 L1880.5,474 " style="stroke: #A80036; stroke-width: 2.0;" filter="url(#f1)"/><text x="1846.5" font-size="14" y="493.9951" fill="#000000" font-family="sans-serif" lengthAdjust="spacingAndGlyphs" textLength="42">blinds</text></a><a xmlns:xlink="http://www.w3.org/1999/xlink" xlink:href="http://127.0.0.1:63320/node?ref=r%3A384b171f-9f99-4bec-9bb3-eff2f4cff2fd%28office_control.requirements%29%2F4079909686390798561" xlink:type="simple" xlink:title="http://127.0.0.1:63320/node?ref=r%3A384b171f-9f99-4bec-9bb3-eff2f4cff2fd%28office_control.requirements%29%2F4079909686390798561" target="_top" xlink:actuate="onRequest" xlink:show="replace"><ellipse fill="#FEFECE" style="stroke: #A80036; stroke-width: 2.0;" filter="url(#f1)" rx="8" cx="1867.5" ry="8" cy="188"/><path fill="#FEFECE" d="M1867.5,196 L1867.5,223 M1854.5,204 L1880.5,204 M1867.5,223 L1854.5,238 M1867.5,223 L1880.5,238 " style="stroke: #A80036; stroke-width: 2.0;" filter="url(#f1)"/><text x="1844" font-size="14" y="257.9951" fill="#000000" font-family="sans-serif" lengthAdjust="spacingAndGlyphs" textLength="47">heater</text></a><a xmlns:xlink="http://www.w3.org/1999/xlink" xlink:href="http://127.0.0.1:63320/node?ref=r%3A384b171f-9f99-4bec-9bb3-eff2f4cff2fd%28office_control.requirements%29%2F4079909686390798618" xlink:type="simple" xlink:title="http://127.0.0.1:63320/node?ref=r%3A384b171f-9f99-4bec-9bb3-eff2f4cff2fd%28office_control.requirements%29%2F4079909686390798618" target="_top" xlink:actuate="onRequest" xlink:show="replace"><ellipse fill="#FEFECE" style="stroke: #A80036; stroke-width: 2.0;" filter="url(#f1)" rx="8" cx="1498" ry="8" cy="70"/><path fill="#FEFECE" d="M1498,78 L1498,105 M1485,86 L1511,86 M1498,105 L1485,120 M1498,105 L1511,120 " style="stroke: #A80036; stroke-width: 2.0;" filter="url(#f1)"/><text x="1479" font-size="14" y="139.9951" fill="#000000" font-family="sans-serif" lengthAdjust="spacingAndGlyphs" textLength="38">lights</text></a><a xmlns:xlink="http://www.w3.org/1999/xlink" xlink:href="http://127.0.0.1:63320/node?ref=r%3A384b171f-9f99-4bec-9bb3-eff2f4cff2fd%28office_control.requirements%29%2F5832979856061162737" xlink:type="simple" xlink:title="http://127.0.0.1:63320/node?ref=r%3A384b171f-9f99-4bec-9bb3-eff2f4cff2fd%28office_control.requirements%29%2F5832979856061162737" target="_top" xlink:actuate="onRequest" xlink:show="replace"><ellipse fill="#FEFECE" style="stroke: #A80036; stroke-width: 1.5;" filter="url(#f1)" rx="61.1565" cx="158.1565" ry="14.6313" cy="631.6313"/><text x="116.6565" font-size="14" y="636.2797" fill="#000000" font-family="sans-serif" lengthAdjust="spacingAndGlyphs" textLength="83">userControl</text></a><a xmlns:xlink="http://www.w3.org/1999/xlink" xlink:href="http://127.0.0.1:63320/node?ref=r%3A384b171f-9f99-4bec-9bb3-eff2f4cff2fd%28office_control.requirements%29%2F5832979856061162336" xlink:type="simple" xlink:title="http://127.0.0.1:63320/node?ref=r%3A384b171f-9f99-4bec-9bb3-eff2f4cff2fd%28office_control.requirements%29%2F5832979856061162336" target="_top" xlink:actuate="onRequest" xlink:show="replace"><ellipse fill="#FEFECE" style="stroke: #A80036; stroke-width: 1.5;" filter="url(#f1)" rx="71.0454" cx="533.0454" ry="16.6091" cy="631.6091"/><text x="478.5454" font-size="14" y="636.2575" fill="#000000" font-family="sans-serif" lengthAdjust="spacingAndGlyphs" textLength="109">getRoomStatus</text></a><a xmlns:xlink="http://www.w3.org/1999/xlink" xlink:href="http://127.0.0.1:63320/node?ref=r%3A384b171f-9f99-4bec-9bb3-eff2f4cff2fd%28office_control.requirements%29%2F5832979856061162343" xlink:type="simple" xlink:title="http://127.0.0.1:63320/node?ref=r%3A384b171f-9f99-4bec-9bb3-eff2f4cff2fd%28office_control.requirements%29%2F5832979856061162343" target="_top" xlink:actuate="onRequest" xlink:show="replace"><ellipse fill="#FEFECE" style="stroke: #A80036; stroke-width: 1.5;" filter="url(#f1)" rx="68.2758" cx="870.2758" ry="16.0552" cy="514.5552"/><text x="819.2758" font-size="14" y="519.2036" fill="#000000" font-family="sans-serif" lengthAdjust="spacingAndGlyphs" textLength="102">controlSystem</text></a><a xmlns:xlink="http://www.w3.org/1999/xlink" xlink:href="http://127.0.0.1:63320/node?ref=r%3A384b171f-9f99-4bec-9bb3-eff2f4cff2fd%28office_control.requirements%29%2F5832979856061162356" xlink:type="simple" xlink:title="http://127.0.0.1:63320/node?ref=r%3A384b171f-9f99-4bec-9bb3-eff2f4cff2fd%28office_control.requirements%29%2F5832979856061162356" target="_top" xlink:actuate="onRequest" xlink:show="replace"><ellipse fill="#FEFECE" style="stroke: #A80036; stroke-width: 1.5;" filter="url(#f1)" rx="92.3318" cx="1289.3318" ry="20.8664" cy="691.3664"/><text x="1209.8318" font-size="14" y="696.0148" fill="#000000" font-family="sans-serif" lengthAdjust="spacingAndGlyphs" textLength="159">getAmbientLightValue</text></a><a xmlns:xlink="http://www.w3.org/1999/xlink" xlink:href="http://127.0.0.1:63320/node?ref=r%3A384b171f-9f99-4bec-9bb3-eff2f4cff2fd%28office_control.requirements%29%2F5832979856061162361" xlink:type="simple" xlink:title="http://127.0.0.1:63320/node?ref=r%3A384b171f-9f99-4bec-9bb3-eff2f4cff2fd%28office_control.requirements%29%2F5832979856061162361" target="_top" xlink:actuate="onRequest" xlink:show="replace"><ellipse fill="#FEFECE" style="stroke: #A80036; stroke-width: 1.5;" filter="url(#f1)" rx="91.8872" cx="1289.3872" ry="20.7774" cy="573.2774"/><text x="1210.3872" font-size="14" y="577.9259" fill="#000000" font-family="sans-serif" lengthAdjust="spacingAndGlyphs" textLength="158">getTemperatureValue</text></a><a xmlns:xlink="http://www.w3.org/1999/xlink" xlink:href="http://127.0.0.1:63320/node?ref=r%3A384b171f-9f99-4bec-9bb3-eff2f4cff2fd%28office_control.requirements%29%2F5832979856061162366" xlink:type="simple" xlink:title="http://127.0.0.1:63320/node?ref=r%3A384b171f-9f99-4bec-9bb3-eff2f4cff2fd%28office_control.requirements%29%2F5832979856061162366" target="_top" xlink:actuate="onRequest" xlink:show="replace"><ellipse fill="#FEFECE" style="stroke: #A80036; stroke-width: 1.5;" filter="url(#f1)" rx="65.9597" cx="1289.4597" ry="15.5919" cy="455.5919"/><text x="1241.4597" font-size="14" y="460.2404" fill="#000000" font-family="sans-serif" lengthAdjust="spacingAndGlyphs" textLength="96">changeBlinds</text></a><a xmlns:xlink="http://www.w3.org/1999/xlink" xlink:href="http://127.0.0.1:63320/node?ref=r%3A384b171f-9f99-4bec-9bb3-eff2f4cff2fd%28office_control.requirements%29%2F5832979856061162371" xlink:type="simple" xlink:title="http://127.0.0.1:63320/node?ref=r%3A384b171f-9f99-4bec-9bb3-eff2f4cff2fd%28office_control.requirements%29%2F5832979856061162371" target="_top" xlink:actuate="onRequest" xlink:show="replace"><ellipse fill="#FEFECE" style="stroke: #A80036; stroke-width: 1.5;" filter="url(#f1)" rx="75.9395" cx="1289.4395" ry="17.5879" cy="357.5879"/><text x="1228.9395" font-size="14" y="362.2363" fill="#000000" font-family="sans-serif" lengthAdjust="spacingAndGlyphs" textLength="121">getBlindsPosition</text></a><a xmlns:xlink="http://www.w3.org/1999/xlink" xlink:href="http://127.0.0.1:63320/node?ref=r%3A384b171f-9f99-4bec-9bb3-eff2f4cff2fd%28office_control.requirements%29%2F5832979856061162376" xlink:type="simple" xlink:title="http://127.0.0.1:63320/node?ref=r%3A384b171f-9f99-4bec-9bb3-eff2f4cff2fd%28office_control.requirements%29%2F5832979856061162376" target="_top" xlink:actuate="onRequest" xlink:show="replace"><ellipse fill="#FEFECE" style="stroke: #A80036; stroke-width: 1.5;" filter="url(#f1)" rx="61.1565" cx="1699.1565" ry="14.6313" cy="455.6313"/><text x="1657.6565" font-size="14" y="460.2797" fill="#000000" font-family="sans-serif" lengthAdjust="spacingAndGlyphs" textLength="83">moveBlinds</text></a><a xmlns:xlink="http://www.w3.org/1999/xlink" xlink:href="http://127.0.0.1:63320/node?ref=r%3A384b171f-9f99-4bec-9bb3-eff2f4cff2fd%28office_control.requirements%29%2F5832979856061162381" xlink:type="simple" xlink:title="http://127.0.0.1:63320/node?ref=r%3A384b171f-9f99-4bec-9bb3-eff2f4cff2fd%28office_control.requirements%29%2F5832979856061162381" target="_top" xlink:actuate="onRequest" xlink:show="replace"><ellipse fill="#FEFECE" style="stroke: #A80036; stroke-width: 1.5;" filter="url(#f1)" rx="87.0368" cx="1289.5368" ry="19.8074" cy="263.3074"/><text x="1216.0368" font-size="14" y="267.9558" fill="#000000" font-family="sans-serif" lengthAdjust="spacingAndGlyphs" textLength="147">changeTemperature</text></a><a xmlns:xlink="http://www.w3.org/1999/xlink" xlink:href="http://127.0.0.1:63320/node?ref=r%3A384b171f-9f99-4bec-9bb3-eff2f4cff2fd%28office_control.requirements%29%2F5832979856061162386" xlink:type="simple" xlink:title="http://127.0.0.1:63320/node?ref=r%3A384b171f-9f99-4bec-9bb3-eff2f4cff2fd%28office_control.requirements%29%2F5832979856061162386" target="_top" xlink:actuate="onRequest" xlink:show="replace"><ellipse fill="#FEFECE" style="stroke: #A80036; stroke-width: 1.5;" filter="url(#f1)" rx="84.8592" cx="1698.8592" ry="19.3718" cy="219.3718"/><text x="1627.8592" font-size="14" y="224.0203" fill="#000000" font-family="sans-serif" lengthAdjust="spacingAndGlyphs" textLength="142">changeHeaterValve</text></a><a xmlns:xlink="http://www.w3.org/1999/xlink" xlink:href="http://127.0.0.1:63320/node?ref=r%3A384b171f-9f99-4bec-9bb3-eff2f4cff2fd%28office_control.requirements%29%2F5832979856061162391" xlink:type="simple" xlink:title="http://127.0.0.1:63320/node?ref=r%3A384b171f-9f99-4bec-9bb3-eff2f4cff2fd%28office_control.requirements%29%2F5832979856061162391" target="_top" xlink:actuate="onRequest" xlink:show="replace"><ellipse fill="#FEFECE" style="stroke: #A80036; stroke-width: 1.5;" filter="url(#f1)" rx="65.5794" cx="1289.5794" ry="15.5159" cy="181.5159"/><text x="1242.0794" font-size="14" y="186.1643" fill="#000000" font-family="sans-serif" lengthAdjust="spacingAndGlyphs" textLength="95">changeLights</text></a><ellipse fill="#FEFECE" style="stroke: #A80036; stroke-width: 2.0;" filter="url(#f1)" rx="8" cx="21.5" ry="8" cy="600"/><path fill="#FEFECE" d="M21.5,608 L21.5,635 M8.5,616 L34.5,616 M21.5,635 L8.5,650 M21.5,635 L34.5,650 " style="stroke: #A80036; stroke-width: 2.0;" filter="url(#f1)"/><text x="6" font-size="14" y="669.9951" fill="#000000" font-family="sans-serif" lengthAdjust="spacingAndGlyphs" textLength="31">user</text><ellipse fill="#FEFECE" style="stroke: #A80036; stroke-width: 2.0;" filter="url(#f1)" rx="8" cx="340.5" ry="8" cy="776"/><path fill="#FEFECE" d="M340.5,784 L340.5,811 M327.5,792 L353.5,792 M340.5,811 L327.5,826 M340.5,811 L353.5,826 " style="stroke: #A80036; stroke-width: 2.0;" filter="url(#f1)"/><text x="279" font-size="14" y="845.9951" fill="#000000" font-family="sans-serif" lengthAdjust="spacingAndGlyphs" textLength="123">maintenanceDep</text><path style="stroke: #A80036; stroke-width: 1.0;" fill="none" d="M37.15,631.5 C51.65,631.5 74.83,631.5 96.96,631.5 "/><path style="stroke: #A80036; stroke-width: 1.0;" fill="none" d="M219.1,631.5 C256.84,631.5 302.53,631.5 325.24,631.5 "/><path style="stroke: #A80036; stroke-width: 1.0;" fill="none" d="M355.51,631.5 C377.76,631.5 422.66,631.5 461.61,631.5 "/><path style="stroke: #A80036; stroke-width: 1.0;" fill="none" d="M386.65,765.79 C427.58,727.98 485.76,674.22 514.52,647.65 "/><path style="stroke: #A80036; stroke-width: 1.0;" fill="none" d="M572.96,617.82 C600.3,608.22 636.67,595.44 663.83,585.91 "/><path style="stroke: #A80036; stroke-width: 1.0;" fill="none" d="M742.39,559.05 C769.22,549.64 804.89,537.14 831.61,527.78 "/><path style="stroke: #A80036; stroke-width: 1.0;" fill="none" d="M888.25,530.33 C912.48,553.13 958.79,596.47 999,632.5 C1005.29,638.13 1011.94,644.01 1018.54,649.79 "/><path style="stroke: #A80036; stroke-width: 1.0;" fill="none" d="M913.44,501.84 C942.05,493.21 980.25,481.68 1011.4,472.28 "/><path style="stroke: #A80036; stroke-width: 1.0;" fill="none" d="M887.5,498.95 C917.05,470.24 981.08,408 1024.12,366.17 "/><path style="stroke: #A80036; stroke-width: 1.0;" fill="none" d="M877.58,498.29 C893.53,456.98 939.49,345.32 999,265.5 C1004.95,257.51 1011.93,249.64 1019.11,242.28 "/><path style="stroke: #A80036; stroke-width: 1.0;" fill="none" d="M913.44,527.16 C942.83,536.03 982.36,547.96 1013.94,557.49 "/><path style="stroke: #A80036; stroke-width: 1.0;" fill="none" d="M1137.25,691.5 C1156.13,691.5 1176.92,691.5 1196.9,691.5 "/><path style="stroke: #A80036; stroke-width: 1.0;" fill="none" d="M1382.28,691.5 C1402.63,691.5 1423.6,691.5 1441.94,691.5 "/><path style="stroke: #A80036; stroke-width: 1.0;" fill="none" d="M1122.13,573.5 C1144.72,573.5 1171.71,573.5 1197.31,573.5 "/><path style="stroke: #A80036; stroke-width: 1.0;" fill="none" d="M1381.68,573.5 C1407.17,573.5 1433.67,573.5 1454.82,573.5 "/><path style="stroke: #A80036; stroke-width: 1.0;" fill="none" d="M1124.67,455.5 C1154.65,455.5 1191.8,455.5 1223.14,455.5 "/><path style="stroke: #A80036; stroke-width: 1.0;" fill="none" d="M1355.55,455.5 C1388.54,455.5 1427.58,455.5 1456.27,455.5 "/><path style="stroke: #A80036; stroke-width: 1.0;" fill="none" d="M1124.67,430.64 C1165.32,412.5 1219.15,388.46 1253.81,372.99 "/><path style="stroke: #A80036; stroke-width: 1.0;" fill="none" d="M1359.84,350.78 C1389.25,347.94 1422.78,344.69 1449.34,342.12 "/><path style="stroke: #A80036; stroke-width: 1.0;" fill="none" d="M1539.75,455.5 C1567.95,455.5 1605.96,455.5 1637.66,455.5 "/><path style="stroke: #A80036; stroke-width: 1.0;" fill="none" d="M1760.11,455.5 C1790.29,455.5 1824.88,455.5 1846.21,455.5 "/><path style="stroke: #A80036; stroke-width: 1.0;" fill="none" d="M1127.25,308.31 C1160.14,299.17 1201.02,287.81 1233.39,278.82 "/><path style="stroke: #A80036; stroke-width: 1.0;" fill="none" d="M1353.86,250 C1386.46,243.05 1425.34,234.77 1454.34,228.59 "/><path style="stroke: #A80036; stroke-width: 1.0;" fill="none" d="M1541.69,219.5 C1562.7,219.5 1588.8,219.5 1613.62,219.5 "/><path style="stroke: #A80036; stroke-width: 1.0;" fill="none" d="M1784.23,219.5 C1806.16,219.5 1828.01,219.5 1843.68,219.5 "/><path style="stroke: #A80036; stroke-width: 1.0;" fill="none" d="M1122.7,195.85 C1154.43,193.11 1194.7,189.62 1227.61,186.77 "/><path style="stroke: #A80036; stroke-width: 1.0;" fill="none" d="M1324.6,168.29 C1368.82,151.16 1444.35,121.9 1478.85,108.53 "/></g></svg>